<svg xmlns="http://www.w3.org/2000/svg" xmlns:xlink="http://www.w3.org/1999/xlink" id="Layer_1" data-name="Layer 1" viewBox="0 0 220 220"><defs><style>.cls-1{fill:#fff;}.cls-2,.cls-3{fill:none;stroke:#b0b0b0;stroke-miterlimit:10;}.cls-2{stroke-width:1.02px;}.cls-3{stroke-width:1.02px;}.cls-4{fill:url(#linear-gradient);}.cls-5{fill:url(#linear-gradient-2);}.cls-6{fill:url(#linear-gradient-3);}.cls-7{fill:url(#linear-gradient-4);}.cls-8{fill:url(#linear-gradient-5);}.cls-9{fill:url(#linear-gradient-6);}.cls-10{fill:url(#linear-gradient-7);}.cls-11{fill:url(#linear-gradient-8);}.cls-12{fill:url(#linear-gradient-9);}.cls-13{fill:url(#linear-gradient-10);}.cls-14{fill:url(#linear-gradient-11);}.cls-15{fill:url(#linear-gradient-12);}.cls-16{fill:url(#linear-gradient-13);}.cls-17{fill:url(#linear-gradient-14);}.cls-18{fill:url(#linear-gradient-15);}.cls-19{fill:url(#linear-gradient-16);}.cls-20{fill:url(#linear-gradient-17);}.cls-21{fill:url(#linear-gradient-18);}.cls-22{fill:url(#linear-gradient-19);}.cls-23{fill:url(#linear-gradient-20);}.cls-24{fill:url(#linear-gradient-21);}.cls-25{fill:url(#linear-gradient-22);}.cls-26{fill:url(#linear-gradient-23);}.cls-27{fill:url(#linear-gradient-24);}.cls-28{fill:url(#linear-gradient-25);}.cls-29{fill:url(#linear-gradient-26);}.cls-30{fill:url(#linear-gradient-27);}.cls-31{fill:url(#linear-gradient-28);}.cls-32{fill:url(#linear-gradient-29);}.cls-33{fill:url(#linear-gradient-30);}.cls-34{fill:url(#linear-gradient-31);}.cls-35{fill:url(#linear-gradient-32);}.cls-36{fill:url(#linear-gradient-33);}.cls-37{fill:url(#linear-gradient-34);}.cls-38{fill:url(#linear-gradient-35);}.cls-39{fill:url(#linear-gradient-36);}.cls-40{fill:url(#linear-gradient-37);}.cls-41{fill:url(#linear-gradient-38);}.cls-42{fill:url(#linear-gradient-39);}.cls-43{fill:url(#linear-gradient-40);}.cls-44{fill:url(#linear-gradient-41);}.cls-45{fill:url(#linear-gradient-42);}.cls-46{fill:url(#linear-gradient-43);}.cls-47{fill:url(#linear-gradient-44);}.cls-48{fill:url(#linear-gradient-45);}.cls-49{fill:url(#linear-gradient-46);}.cls-50{fill:url(#linear-gradient-47);}.cls-51{fill:url(#linear-gradient-48);}.cls-52{fill:url(#linear-gradient-49);}.cls-53{fill:url(#linear-gradient-50);}.cls-54{fill:url(#linear-gradient-51);}.cls-55{fill:url(#linear-gradient-52);}.cls-56{fill:url(#linear-gradient-53);}.cls-57{fill:url(#linear-gradient-54);}.cls-58{fill:url(#linear-gradient-55);}.cls-59{fill:url(#linear-gradient-56);}.cls-60{fill:url(#linear-gradient-57);}.cls-61{fill:url(#linear-gradient-58);}.cls-62{fill:url(#linear-gradient-59);}.cls-63{fill:url(#linear-gradient-60);}.cls-64{fill:url(#linear-gradient-61);}.cls-65{fill:url(#linear-gradient-62);}.cls-66{fill:url(#linear-gradient-63);}.cls-67{fill:url(#linear-gradient-64);}.cls-68{fill:url(#linear-gradient-65);}.cls-69{fill:url(#linear-gradient-66);}.cls-70{fill:url(#linear-gradient-67);}.cls-71{fill:url(#linear-gradient-68);}.cls-72{fill:url(#linear-gradient-69);}.cls-73{fill:url(#linear-gradient-70);}.cls-74{fill:url(#linear-gradient-71);}.cls-75{fill:url(#linear-gradient-72);}</style><linearGradient id="linear-gradient" x1="81.3" y1="49.92" x2="153.42" y2="-22.2" gradientUnits="userSpaceOnUse"><stop offset="0.15" stop-color="#ed1c24"/><stop offset="1" stop-color="#fff"/></linearGradient><linearGradient id="linear-gradient-2" x1="92.78" y1="56.2" x2="164.9" y2="-15.92" xlink:href="#linear-gradient"/><linearGradient id="linear-gradient-3" x1="104.26" y1="62.47" x2="176.38" y2="-9.64" xlink:href="#linear-gradient"/><linearGradient id="linear-gradient-4" x1="115.74" y1="68.75" x2="187.86" y2="-3.37" xlink:href="#linear-gradient"/><linearGradient id="linear-gradient-5" x1="127.22" y1="75.03" x2="199.33" y2="2.91" xlink:href="#linear-gradient"/><linearGradient id="linear-gradient-6" x1="87.58" y1="61.4" x2="159.7" y2="-10.72" xlink:href="#linear-gradient"/><linearGradient id="linear-gradient-7" x1="99.06" y1="67.67" x2="171.18" y2="-4.44" xlink:href="#linear-gradient"/><linearGradient id="linear-gradient-8" x1="110.54" y1="73.95" x2="182.66" y2="1.83" xlink:href="#linear-gradient"/><linearGradient id="linear-gradient-9" x1="122.02" y1="80.23" x2="194.13" y2="8.11" xlink:href="#linear-gradient"/><linearGradient id="linear-gradient-10" x1="133.49" y1="86.51" x2="205.61" y2="14.39" xlink:href="#linear-gradient"/><linearGradient id="linear-gradient-11" x1="144.97" y1="92.78" x2="217.09" y2="20.67" xlink:href="#linear-gradient"/><linearGradient id="linear-gradient-12" x1="93.86" y1="72.87" x2="165.98" y2="0.76" xlink:href="#linear-gradient"/><linearGradient id="linear-gradient-13" x1="105.34" y1="79.15" x2="177.46" y2="7.03" xlink:href="#linear-gradient"/><linearGradient id="linear-gradient-14" x1="116.82" y1="85.43" x2="188.93" y2="13.31" xlink:href="#linear-gradient"/><linearGradient id="linear-gradient-15" x1="128.29" y1="91.71" x2="200.41" y2="19.59" xlink:href="#linear-gradient"/><linearGradient id="linear-gradient-16" x1="139.77" y1="97.98" x2="211.89" y2="25.87" xlink:href="#linear-gradient"/><linearGradient id="linear-gradient-17" x1="151.25" y1="104.26" x2="223.37" y2="32.14" xlink:href="#linear-gradient"/><linearGradient id="linear-gradient-18" x1="100.14" y1="84.35" x2="172.25" y2="12.23" xlink:href="#linear-gradient"/><linearGradient id="linear-gradient-19" x1="111.62" y1="90.63" x2="183.73" y2="18.51" xlink:href="#linear-gradient"/><linearGradient id="linear-gradient-20" x1="123.09" y1="96.91" x2="195.21" y2="24.79" xlink:href="#linear-gradient"/><linearGradient id="linear-gradient-21" x1="134.57" y1="103.18" x2="206.69" y2="31.07" xlink:href="#linear-gradient"/><linearGradient id="linear-gradient-22" x1="146.05" y1="109.46" x2="218.17" y2="37.34" xlink:href="#linear-gradient"/><linearGradient id="linear-gradient-23" x1="157.53" y1="115.74" x2="229.64" y2="43.62" xlink:href="#linear-gradient"/><linearGradient id="linear-gradient-24" x1="106.41" y1="95.83" x2="178.53" y2="23.71" xlink:href="#linear-gradient"/><linearGradient id="linear-gradient-25" x1="117.89" y1="102.11" x2="190.01" y2="29.99" xlink:href="#linear-gradient"/><linearGradient id="linear-gradient-26" x1="129.37" y1="108.39" x2="201.49" y2="36.27" xlink:href="#linear-gradient"/><linearGradient id="linear-gradient-27" x1="140.85" y1="114.66" x2="212.97" y2="42.54" xlink:href="#linear-gradient"/><linearGradient id="linear-gradient-28" x1="152.33" y1="120.94" x2="224.44" y2="48.82" xlink:href="#linear-gradient"/><linearGradient id="linear-gradient-29" x1="163.8" y1="127.22" x2="235.92" y2="55.1" xlink:href="#linear-gradient"/><linearGradient id="linear-gradient-30" x1="112.69" y1="107.31" x2="184.81" y2="35.19" xlink:href="#linear-gradient"/><linearGradient id="linear-gradient-31" x1="124.17" y1="113.59" x2="196.29" y2="41.47" xlink:href="#linear-gradient"/><linearGradient id="linear-gradient-32" x1="135.65" y1="119.86" x2="207.77" y2="47.75" xlink:href="#linear-gradient"/><linearGradient id="linear-gradient-33" x1="147.13" y1="126.14" x2="219.24" y2="54.02" xlink:href="#linear-gradient"/><linearGradient id="linear-gradient-34" x1="158.6" y1="132.42" x2="230.72" y2="60.3" xlink:href="#linear-gradient"/><linearGradient id="linear-gradient-35" x1="170.08" y1="138.7" x2="242.2" y2="66.58" xlink:href="#linear-gradient"/><linearGradient id="linear-gradient-36" x1="144.97" y1="75.03" x2="217.09" y2="2.91" xlink:href="#linear-gradient"/><linearGradient id="linear-gradient-37" x1="-22.2" y1="153.42" x2="49.92" y2="81.3" gradientUnits="userSpaceOnUse"><stop offset="0" stop-color="#fff"/><stop offset="0.33" stop-color="#66676a"/><stop offset="0.46" stop-color="#505153"/><stop offset="0.6" stop-color="#3f3f40"/><stop offset="0.77" stop-color="#373536"/><stop offset="1" stop-color="#252122"/></linearGradient><linearGradient id="linear-gradient-38" x1="-10.72" y1="159.7" x2="61.4" y2="87.58" xlink:href="#linear-gradient-37"/><linearGradient id="linear-gradient-39" x1="0.76" y1="165.98" x2="72.87" y2="93.86" xlink:href="#linear-gradient-37"/><linearGradient id="linear-gradient-40" x1="12.23" y1="172.25" x2="84.35" y2="100.14" xlink:href="#linear-gradient-37"/><linearGradient id="linear-gradient-41" x1="23.71" y1="178.53" x2="95.83" y2="106.41" xlink:href="#linear-gradient-37"/><linearGradient id="linear-gradient-42" x1="35.19" y1="184.81" x2="107.31" y2="112.69" xlink:href="#linear-gradient-37"/><linearGradient id="linear-gradient-43" x1="-15.92" y1="164.9" x2="56.2" y2="92.78" xlink:href="#linear-gradient-37"/><linearGradient id="linear-gradient-44" x1="-4.44" y1="171.18" x2="67.67" y2="99.06" xlink:href="#linear-gradient-37"/><linearGradient id="linear-gradient-45" x1="7.03" y1="177.46" x2="79.15" y2="105.34" xlink:href="#linear-gradient-37"/><linearGradient id="linear-gradient-46" x1="18.51" y1="183.73" x2="90.63" y2="111.62" xlink:href="#linear-gradient-37"/><linearGradient id="linear-gradient-47" x1="29.99" y1="190.01" x2="102.11" y2="117.89" xlink:href="#linear-gradient-37"/><linearGradient id="linear-gradient-48" x1="41.47" y1="196.29" x2="113.59" y2="124.17" xlink:href="#linear-gradient-37"/><linearGradient id="linear-gradient-49" x1="-9.64" y1="176.38" x2="62.47" y2="104.26" xlink:href="#linear-gradient-37"/><linearGradient id="linear-gradient-50" x1="1.83" y1="182.66" x2="73.95" y2="110.54" xlink:href="#linear-gradient-37"/><linearGradient id="linear-gradient-51" x1="13.31" y1="188.93" x2="85.43" y2="116.82" xlink:href="#linear-gradient-37"/><linearGradient id="linear-gradient-52" x1="24.79" y1="195.21" x2="96.91" y2="123.09" xlink:href="#linear-gradient-37"/><linearGradient id="linear-gradient-53" x1="36.27" y1="201.49" x2="108.38" y2="129.37" xlink:href="#linear-gradient-37"/><linearGradient id="linear-gradient-54" x1="47.75" y1="207.77" x2="119.86" y2="135.65" xlink:href="#linear-gradient-37"/><linearGradient id="linear-gradient-55" x1="-3.37" y1="187.86" x2="68.75" y2="115.74" xlink:href="#linear-gradient-37"/><linearGradient id="linear-gradient-56" x1="8.11" y1="194.13" x2="80.23" y2="122.02" xlink:href="#linear-gradient-37"/><linearGradient id="linear-gradient-57" x1="19.59" y1="200.41" x2="91.71" y2="128.29" xlink:href="#linear-gradient-37"/><linearGradient id="linear-gradient-58" x1="31.07" y1="206.69" x2="103.18" y2="134.57" xlink:href="#linear-gradient-37"/><linearGradient id="linear-gradient-59" x1="42.54" y1="212.97" x2="114.66" y2="140.85" xlink:href="#linear-gradient-37"/><linearGradient id="linear-gradient-60" x1="54.02" y1="219.24" x2="126.14" y2="147.13" xlink:href="#linear-gradient-37"/><linearGradient id="linear-gradient-61" x1="2.91" y1="199.33" x2="75.03" y2="127.22" xlink:href="#linear-gradient-37"/><linearGradient id="linear-gradient-62" x1="14.39" y1="205.61" x2="86.51" y2="133.49" xlink:href="#linear-gradient-37"/><linearGradient id="linear-gradient-63" x1="25.87" y1="211.89" x2="97.98" y2="139.77" xlink:href="#linear-gradient-37"/><linearGradient id="linear-gradient-64" x1="37.34" y1="218.17" x2="109.46" y2="146.05" xlink:href="#linear-gradient-37"/><linearGradient id="linear-gradient-65" x1="48.82" y1="224.44" x2="120.94" y2="152.33" xlink:href="#linear-gradient-37"/><linearGradient id="linear-gradient-66" x1="60.3" y1="230.72" x2="132.42" y2="158.6" xlink:href="#linear-gradient-37"/><linearGradient id="linear-gradient-67" x1="20.67" y1="217.09" x2="92.78" y2="144.97" xlink:href="#linear-gradient-37"/><linearGradient id="linear-gradient-68" x1="32.14" y1="223.37" x2="104.26" y2="151.25" xlink:href="#linear-gradient-37"/><linearGradient id="linear-gradient-69" x1="43.62" y1="229.64" x2="115.74" y2="157.53" xlink:href="#linear-gradient-37"/><linearGradient id="linear-gradient-70" x1="55.1" y1="235.92" x2="127.22" y2="163.8" xlink:href="#linear-gradient-37"/><linearGradient id="linear-gradient-71" x1="66.58" y1="242.2" x2="138.7" y2="170.08" xlink:href="#linear-gradient-37"/><linearGradient id="linear-gradient-72" x1="2.91" y1="217.09" x2="75.03" y2="144.97" xlink:href="#linear-gradient-37"/></defs><path class="cls-2" d="M7.25,110.76V16.48a9.16,9.16,0,0,1,9.09-9.23h94.42"/><path class="cls-3" d="M212.75,109.24v94.42a9.16,9.16,0,0,1-9.23,9.09H109.24"/><rect class="cls-4" x="110.76" y="7.25" width="13.21" height="13.21" rx="6.61"/><rect class="cls-5" x="128.51" y="7.25" width="13.21" height="13.21" rx="6.61"/><rect class="cls-6" x="146.27" y="7.25" width="13.21" height="13.21" rx="6.61"/><rect class="cls-7" x="164.02" y="7.25" width="13.21" height="13.21" rx="6.61"/><rect class="cls-8" x="181.78" y="7.25" width="13.21" height="13.21" rx="6.61"/><rect class="cls-9" x="110.76" y="25.01" width="13.21" height="13.21" rx="6.61"/><rect class="cls-10" x="128.51" y="25.01" width="13.21" height="13.21" rx="6.61"/><rect class="cls-11" x="146.27" y="25.01" width="13.21" height="13.21" rx="6.61"/><rect class="cls-12" x="164.02" y="25.01" width="13.21" height="13.21" rx="6.61"/><rect class="cls-13" x="181.78" y="25.01" width="13.21" height="13.21" rx="6.61"/><rect class="cls-14" x="199.54" y="25.01" width="13.21" height="13.21" rx="6.61"/><rect class="cls-15" x="110.76" y="42.76" width="13.21" height="13.21" rx="6.61"/><rect class="cls-16" x="128.51" y="42.76" width="13.21" height="13.21" rx="6.61"/><rect class="cls-17" x="146.27" y="42.76" width="13.21" height="13.21" rx="6.61"/><rect class="cls-18" x="164.02" y="42.76" width="13.21" height="13.21" rx="6.61"/><rect class="cls-19" x="181.78" y="42.76" width="13.21" height="13.21" rx="6.61"/><rect class="cls-20" x="199.54" y="42.76" width="13.21" height="13.21" rx="6.61"/><rect class="cls-21" x="110.76" y="60.52" width="13.21" height="13.21" rx="6.61"/><rect class="cls-22" x="128.51" y="60.52" width="13.21" height="13.21" rx="6.61"/><rect class="cls-23" x="146.27" y="60.52" width="13.21" height="13.21" rx="6.61"/><rect class="cls-24" x="164.02" y="60.52" width="13.21" height="13.21" rx="6.61"/><rect class="cls-25" x="181.78" y="60.52" width="13.21" height="13.21" rx="6.61"/><rect class="cls-26" x="199.54" y="60.52" width="13.21" height="13.21" rx="6.61"/><rect class="cls-27" x="110.76" y="78.28" width="13.21" height="13.21" rx="6.61"/><rect class="cls-28" x="128.51" y="78.28" width="13.21" height="13.21" rx="6.61"/><rect class="cls-29" x="146.27" y="78.28" width="13.21" height="13.21" rx="6.61"/><rect class="cls-30" x="164.02" y="78.28" width="13.21" height="13.21" rx="6.61"/><rect class="cls-31" x="181.78" y="78.28" width="13.21" height="13.21" rx="6.61"/><rect class="cls-32" x="199.54" y="78.28" width="13.21" height="13.21" rx="6.61"/><rect class="cls-33" x="110.76" y="96.03" width="13.21" height="13.21" rx="6.61"/><rect class="cls-34" x="128.51" y="96.03" width="13.21" height="13.21" rx="6.61"/><rect class="cls-35" x="146.27" y="96.03" width="13.21" height="13.21" rx="6.61"/><rect class="cls-36" x="164.02" y="96.03" width="13.21" height="13.21" rx="6.61"/><rect class="cls-37" x="181.78" y="96.03" width="13.21" height="13.21" rx="6.61"/><rect class="cls-38" x="199.54" y="96.03" width="13.21" height="13.21" rx="6.61"/><rect class="cls-39" x="199.54" y="7.25" width="13.21" height="13.21" rx="6.61"/><rect class="cls-40" x="7.25" y="110.76" width="13.21" height="13.21" rx="6.61"/><rect class="cls-41" x="25.01" y="110.76" width="13.21" height="13.21" rx="6.61"/><rect class="cls-42" x="42.76" y="110.76" width="13.21" height="13.21" rx="6.61"/><rect class="cls-43" x="60.52" y="110.76" width="13.21" height="13.21" rx="6.61"/><rect class="cls-44" x="78.28" y="110.76" width="13.21" height="13.21" rx="6.61"/><rect class="cls-45" x="96.03" y="110.76" width="13.21" height="13.21" rx="6.61"/><rect class="cls-46" x="7.25" y="128.51" width="13.21" height="13.21" rx="6.61"/><rect class="cls-47" x="25.01" y="128.51" width="13.21" height="13.21" rx="6.61"/><rect class="cls-48" x="42.76" y="128.51" width="13.21" height="13.21" rx="6.61"/><rect class="cls-49" x="60.52" y="128.51" width="13.21" height="13.21" rx="6.61"/><rect class="cls-50" x="78.28" y="128.51" width="13.21" height="13.21" rx="6.61"/><rect class="cls-51" x="96.03" y="128.51" width="13.21" height="13.21" rx="6.61"/><rect class="cls-52" x="7.25" y="146.27" width="13.21" height="13.21" rx="6.61"/><rect class="cls-53" x="25.01" y="146.27" width="13.21" height="13.21" rx="6.61"/><rect class="cls-54" x="42.76" y="146.27" width="13.21" height="13.21" rx="6.61"/><rect class="cls-55" x="60.52" y="146.27" width="13.21" height="13.21" rx="6.61"/><rect class="cls-56" x="78.28" y="146.27" width="13.21" height="13.21" rx="6.61"/><rect class="cls-57" x="96.03" y="146.27" width="13.21" height="13.21" rx="6.61"/><rect class="cls-58" x="7.25" y="164.02" width="13.21" height="13.21" rx="6.61"/><rect class="cls-59" x="25.01" y="164.02" width="13.21" height="13.21" rx="6.61"/><rect class="cls-60" x="42.76" y="164.02" width="13.21" height="13.21" rx="6.61"/><rect class="cls-61" x="60.52" y="164.02" width="13.21" height="13.21" rx="6.61"/><rect class="cls-62" x="78.28" y="164.02" width="13.21" height="13.21" rx="6.61"/><rect class="cls-63" x="96.03" y="164.02" width="13.21" height="13.21" rx="6.61"/><rect class="cls-64" x="7.25" y="181.78" width="13.21" height="13.21" rx="6.61"/><rect class="cls-65" x="25.01" y="181.78" width="13.21" height="13.21" rx="6.61"/><rect class="cls-66" x="42.76" y="181.78" width="13.21" height="13.21" rx="6.61"/><rect class="cls-67" x="60.52" y="181.78" width="13.21" height="13.21" rx="6.61"/><rect class="cls-68" x="78.28" y="181.78" width="13.21" height="13.21" rx="6.61"/><rect class="cls-69" x="96.03" y="181.78" width="13.21" height="13.21" rx="6.61"/><rect class="cls-70" x="25.01" y="199.54" width="13.21" height="13.21" rx="6.61"/><rect class="cls-71" x="42.76" y="199.54" width="13.21" height="13.21" rx="6.61"/><rect class="cls-72" x="60.52" y="199.54" width="13.21" height="13.21" rx="6.61"/><rect class="cls-73" x="78.28" y="199.54" width="13.21" height="13.21" rx="6.61"/><rect class="cls-74" x="96.03" y="199.54" width="13.21" height="13.21" rx="6.61"/><rect class="cls-75" x="7.25" y="199.54" width="13.21" height="13.21" rx="6.61"/></svg>